D:\school\WTK\thesis\model\3dpredictsim\Results\tmt_lin\Pog_s1_tmt_bCst_d00_k1000_ig24_act_v4_GRF.mot
nRows=27
nColumns=19

name D:\school\WTK\thesis\model\3dpredictsim\Results\tmt_lin\Pog_s1_tmt_bCst_d00_k1000_ig24_act_v4_GRF.mot
datacolumns 19
datarows 27
range 0.0000000000 0.4146283201
endheader
time 	ground_force_vx	ground_force_vy	ground_force_vz	ground_force_px	ground_force_py	ground_force_pz	1_ground_force_vx	1_ground_force_vy	1_ground_force_vz	1_ground_force_px	1_ground_force_py	1_ground_force_pz	ground_torque_x	ground_torque_y	ground_torque_z	1_ground_torque_x	1_ground_torque_y	1_ground_torque_z
        0.0000000000	      -75.9766039041	      178.0570920817	       25.2923535993	        0.3111955603	        0.0000000000	        0.0465597092	      129.8542464451	      385.8326166032	       -5.2278111517	       -0.4625055411	        0.0000000000	       -0.0423215810	        0.0000000000	        0.0000000000	        0.0000000000	        0.0000000000	        0.0000000000	        0.0000000000	
        0.0159472431	     -136.3568890283	      583.0941553925	       -6.7541958652	        0.3133999310	        0.0000000000	        0.0455700812	       69.6070526759	      275.3759725232	       -8.9139948578	       -0.4484068711	        0.0000000000	       -0.0377863427	        0.0000000000	        0.0000000000	        0.0000000000	        0.0000000000	        0.0000000000	        0.0000000000	
        0.0318944862	     -190.9650055397	      739.0148275742	       -9.3644430520	        0.3155591367	        0.0000000000	        0.0455478764	       52.1877184546	      217.3866905731	      -13.9289510051	       -0.4432072654	        0.0000000000	       -0.0362089413	        0.0000000000	        0.0000000000	        0.0000000000	        0.0000000000	        0.0000000000	        0.0000000000	
        0.0478417292	     -206.4218249255	      793.0400199171	       -8.2541181106	        0.3232547361	        0.0000000000	        0.0473170691	       41.5605634190	      150.5508843359	      -19.0095653380	       -0.4429133032	        0.0000000000	       -0.0368000773	        0.0000000000	        0.0000000000	        0.0000000000	        0.0000000000	        0.0000000000	        0.0000000000	
        0.0637889723	     -211.5144776693	      809.2475079163	       -1.5065340881	        0.3319177411	        0.0000000000	        0.0496440409	       12.1091524705	       53.2706965780	      -15.9425877901	       -0.4433992198	        0.0000000000	       -0.0381052187	        0.0000000000	        0.0000000000	        0.0000000000	        0.0000000000	        0.0000000000	        0.0000000000	
        0.0797362154	     -202.8292003802	      812.5547415784	       -1.7394649941	        0.3375494368	        0.0000000000	        0.0507480355	        0.0595502253	       -0.0611518923	        0.0130304125	        0.0000000000	        0.0000000000	        0.0000000000	        0.0000000000	        0.0000000000	        0.0000000000	        0.0000000000	        0.0000000000	        0.0000000000	
        0.0956834585	     -177.8867919696	      793.5846747762	       -5.6328227837	        0.3417196793	        0.0000000000	        0.0512827867	      -15.6963721397	       11.2232375622	        0.8820792689	       -0.4317165983	        0.0000000000	       -0.0353687176	        0.0000000000	        0.0000000000	        0.0000000000	        0.0000000000	        0.0000000000	        0.0000000000	
        0.1116307016	     -158.2646101971	      756.5622453004	       -9.3054766149	        0.3451172159	        0.0000000000	        0.0516288221	      -24.5487590316	       15.7645355370	        1.5249333225	       -0.4067364793	        0.0000000000	       -0.0374660853	        0.0000000000	        0.0000000000	        0.0000000000	        0.0000000000	        0.0000000000	        0.0000000000	
        0.1275779446	     -139.7989632983	      723.8976822450	      -10.4862201881	        0.3483573334	        0.0000000000	        0.0518315770	      -25.7660365209	       14.7951882635	        2.2468211387	       -0.3768388509	        0.0000000000	       -0.0401486938	        0.0000000000	        0.0000000000	        0.0000000000	        0.0000000000	        0.0000000000	        0.0000000000	
        0.1435251877	     -121.2983420674	      694.2472684575	       -9.5459123749	        0.3517934684	        0.0000000000	        0.0519655585	      -25.4091196145	       13.5513659570	        2.1091254479	       -0.3430836443	        0.0000000000	       -0.0431957433	        0.0000000000	        0.0000000000	        0.0000000000	        0.0000000000	        0.0000000000	        0.0000000000	
        0.1594724308	     -105.1186906516	      666.2173457761	      -10.7588604454	        0.3553710670	        0.0000000000	        0.0520258488	      -24.4302239082	       12.4390753747	        1.8363360588	       -0.3068846434	        0.0000000000	       -0.0459822023	        0.0000000000	        0.0000000000	        0.0000000000	        0.0000000000	        0.0000000000	        0.0000000000	
        0.1754196739	      -91.3278099992	      642.8821284092	      -11.7992549045	        0.3596154853	        0.0000000000	        0.0519827585	      -21.4589313470	       10.6176145216	        1.3046247548	       -0.2688006086	        0.0000000000	       -0.0483228746	        0.0000000000	        0.0000000000	        0.0000000000	        0.0000000000	        0.0000000000	        0.0000000000	
        0.1913669170	      -79.9427651310	      625.1897272221	      -13.0993062505	        0.3644237113	        0.0000000000	        0.0518850314	      -17.8657554291	        8.6125743496	        0.9062658672	        0.0000000000	        0.0000000000	        0.0000000000	        0.0000000000	        0.0000000000	        0.0000000000	        0.0000000000	        0.0000000000	        0.0000000000	
        0.2073141600	      -69.8004037771	      610.6507030319	      -14.1389057681	        0.3692597463	        0.0000000000	        0.0518640970	      -13.9870600012	        6.5819777095	        0.6031271805	        0.0000000000	        0.0000000000	        0.0000000000	        0.0000000000	        0.0000000000	        0.0000000000	        0.0000000000	        0.0000000000	        0.0000000000	
        0.2232614031	      -60.8449928200	      598.3725456340	      -15.2509905200	        0.3738925706	        0.0000000000	        0.0519469412	      -10.2839010982	        4.7417229244	        0.3759895936	        0.0000000000	        0.0000000000	        0.0000000000	        0.0000000000	        0.0000000000	        0.0000000000	        0.0000000000	        0.0000000000	        0.0000000000	
        0.2392086462	      -53.2226688688	      589.1399842651	      -15.9915599106	        0.3783747002	        0.0000000000	        0.0521211333	       -7.3764087488	        3.3427767849	        0.2215871051	        0.0000000000	        0.0000000000	        0.0000000000	        0.0000000000	        0.0000000000	        0.0000000000	        0.0000000000	        0.0000000000	        0.0000000000	
        0.2551558893	      -48.1805506817	      584.8535041401	      -16.6337202218	        0.3827485042	        0.0000000000	        0.0523549095	       -5.3047749107	        2.3660154989	        0.1293577230	        0.0000000000	        0.0000000000	        0.0000000000	        0.0000000000	        0.0000000000	        0.0000000000	        0.0000000000	        0.0000000000	        0.0000000000	
        0.2711031324	      -43.7134572561	      583.7573563174	      -17.1580320535	        0.3869399917	        0.0000000000	        0.0526373222	       -3.6968464580	        1.6240149637	        0.0774213334	        0.0000000000	        0.0000000000	        0.0000000000	        0.0000000000	        0.0000000000	        0.0000000000	        0.0000000000	        0.0000000000	        0.0000000000	
        0.2870503754	      -38.1729169677	      582.6905098989	      -17.2417020953	        0.3909441138	        0.0000000000	        0.0529679537	       -2.4912274189	        1.0768454573	        0.0469313007	        0.0000000000	        0.0000000000	        0.0000000000	        0.0000000000	        0.0000000000	        0.0000000000	        0.0000000000	        0.0000000000	        0.0000000000	
        0.3029976185	      -31.8174207444	      580.2925324624	      -17.3177869069	        0.3947481634	        0.0000000000	        0.0533307809	       -1.7610939753	        0.7477995822	        0.0300538299	        0.0000000000	        0.0000000000	        0.0000000000	        0.0000000000	        0.0000000000	        0.0000000000	        0.0000000000	        0.0000000000	        0.0000000000	
        0.3189448616	      -25.3567019618	      576.8292813632	      -18.3206079483	        0.3983825019	        0.0000000000	        0.0537041342	       -1.3570608528	        0.5657138270	        0.0209340672	        0.0000000000	        0.0000000000	        0.0000000000	        0.0000000000	        0.0000000000	        0.0000000000	        0.0000000000	        0.0000000000	        0.0000000000	
        0.3348921047	      -18.6244871689	      572.6738059120	      -19.4031868505	        0.4018558287	        0.0000000000	        0.0541043641	       -1.1355950370	        0.4649955303	        0.0164529012	        0.0000000000	        0.0000000000	        0.0000000000	        0.0000000000	        0.0000000000	        0.0000000000	        0.0000000000	        0.0000000000	        0.0000000000	
        0.3508393478	      -11.7105590415	      567.4960842073	      -20.7361109925	        0.4052377874	        0.0000000000	        0.0545122899	       -1.0096841207	        0.4063860024	        0.0147321480	        0.0000000000	        0.0000000000	        0.0000000000	        0.0000000000	        0.0000000000	        0.0000000000	        0.0000000000	        0.0000000000	        0.0000000000	
        0.3667865908	       -5.0908991129	      559.6274925881	      -21.0016411627	        0.4085614707	        0.0000000000	        0.0549323803	       -0.9668353859	        0.3824598471	        0.0150140238	        0.0000000000	        0.0000000000	        0.0000000000	        0.0000000000	        0.0000000000	        0.0000000000	        0.0000000000	        0.0000000000	        0.0000000000	
        0.3827338339	        1.9679994587	      551.6945873611	      -21.6797956877	        0.4126032683	        0.0000000000	        0.0552657189	       -1.0341041094	        0.4018490884	        0.0172310995	        0.0000000000	        0.0000000000	        0.0000000000	        0.0000000000	        0.0000000000	        0.0000000000	        0.0000000000	        0.0000000000	        0.0000000000	
        0.3986810770	        7.6584802860	      543.9903636511	      -21.5582147056	        0.4174422557	        0.0000000000	        0.0554761860	       -1.1928603115	        0.4558557235	        0.0199727284	        0.0000000000	        0.0000000000	        0.0000000000	        0.0000000000	        0.0000000000	        0.0000000000	        0.0000000000	        0.0000000000	        0.0000000000	
        0.4146283201	       12.9873663398	      537.2106553864	      -20.4256241296	        0.4228555249	        0.0000000000	        0.0555695786	       -1.3773374481	        0.5186089906	        0.0197851066	        0.0000000000	        0.0000000000	        0.0000000000	        0.0000000000	        0.0000000000	        0.0000000000	        0.0000000000	        0.0000000000	        0.0000000000	
